<?xml version="1.0"?>
<!-- Generated by SVGo -->
<svg width="230" height="230"
     class="radarsvg"
     xmlns="http://www.w3.org/2000/svg"
     xmlns:xlink="http://www.w3.org/1999/xlink">
<g transform="translate(115,115)">
<style type="text/css">
<![CDATA[

.radarsvg {
	font-family: sans-serif;
	font-size: 10px;
}
.radarsvg-outline {
	fill: rgb(0, 130, 153);
	stroke: rgb(0, 104, 122);
}
.radarsvg-subline {
	fill: none;
	stroke: rgb(0, 104, 122);
}
.radarsvg-datumline {
	stroke: rgb(0, 104, 122);
}
.radarsvg-dataline {
	fill: rgba(179, 57, 81, 0.75);
}
.radarsvg-hovercircle {
	fill: none;
	stroke: none;
}
.radarsvg-point {
	fill: rgb(179, 57, 81);
}
.radarsvg-label {
	text-anchor: middle;
	alignment-baseline: central;
}
.radarsvg-labelleft {
	text-anchor: start;
}
.radarsvg-labelright {
	text-anchor: end;
}
.radarsvg-labeltop {
	alignment-baseline: before-edge;
}
.radarsvg-labelbottom {
	alignment-baseline: after-edge;
}
]]>
</style>
<path d="M 0,-100 L -87,-50 L -87,50 L 0,100 L 87,50 L 87,-50 L 0,-100 L -87,-50 " class="radarsvg-outline" />
<path d="M 0,-75 L -65,-38 L -65,37 L 0,75 L 65,38 L 65,-37 L 0,-75 L -65,-38 " class="radarsvg-subline" />
<path d="M 0,-50 L -43,-25 L -43,25 L 0,50 L 43,25 L 43,-25 L 0,-50 L -43,-25 " class="radarsvg-subline" />
<path d="M 0,-25 L -22,-13 L -22,12 L 0,25 L 22,13 L 22,-12 L 0,-25 L -22,-13 " class="radarsvg-subline" />
<path d="M 0,0 L 0,0 L 0,0 L 0,0 L 0,0 L 0,0 L 0,0 L 0,0 " class="radarsvg-subline" />
<line x1="0" y1="0" x2="0" y2="-100" class="radarsvg-datumline" />
<line x1="0" y1="0" x2="-87" y2="-50" class="radarsvg-datumline" />
<line x1="0" y1="0" x2="-87" y2="50" class="radarsvg-datumline" />
<line x1="0" y1="0" x2="0" y2="100" class="radarsvg-datumline" />
<line x1="0" y1="0" x2="87" y2="50" class="radarsvg-datumline" />
<line x1="0" y1="0" x2="87" y2="-50" class="radarsvg-datumline" />
<path d="M 0,-50 L -26,-15 L -43,25 L 0,50 L 43,25 L 87,-50 L 0,-50 L -26,-15 " class="radarsvg-dataline" />
<text x="0" y="-100" class="radarsvg-label radarsvg-labeltop " >Test</text>
<text x="-87" y="-50" class="radarsvg-label radarsvg-labelleft radarsvg-labeltop " >Test1</text>
<text x="-87" y="50" class="radarsvg-label radarsvg-labelleft radarsvg-labelbottom " >Test2</text>
<text x="0" y="100" class="radarsvg-label radarsvg-labelbottom " >Test3</text>
<text x="87" y="50" class="radarsvg-label radarsvg-labelright radarsvg-labelbottom " >Test4</text>
<text x="87" y="-50" class="radarsvg-label radarsvg-labelright radarsvg-labeltop " >Test4</text>
<circle cx="0" cy="-50" r="1" class="radarsvg-point" />
<circle cx="0" cy="-50" r="3" class="radarsvg-hovercircle" data-radarsvg-i="0" />
<circle cx="-26" cy="-15" r="1" class="radarsvg-point" />
<circle cx="-26" cy="-15" r="3" class="radarsvg-hovercircle" data-radarsvg-i="1" />
<circle cx="-43" cy="25" r="1" class="radarsvg-point" />
<circle cx="-43" cy="25" r="3" class="radarsvg-hovercircle" data-radarsvg-i="2" />
<circle cx="0" cy="50" r="1" class="radarsvg-point" />
<circle cx="0" cy="50" r="3" class="radarsvg-hovercircle" data-radarsvg-i="3" />
<circle cx="43" cy="25" r="1" class="radarsvg-point" />
<circle cx="43" cy="25" r="3" class="radarsvg-hovercircle" data-radarsvg-i="4" />
<circle cx="87" cy="-50" r="1" class="radarsvg-point" />
<circle cx="87" cy="-50" r="3" class="radarsvg-hovercircle" data-radarsvg-i="5" />
</g>
</svg>
